<svg width="199" height="199" viewBox="0 0 199 199" fill="none" xmlns="http://www.w3.org/2000/svg">
<mask id="mask0_81_946" style="mask-type:luminance" maskUnits="userSpaceOnUse" x="0" y="0" width="199" height="199">
<path d="M99.3908 198.781C154.283 198.781 198.782 154.283 198.782 99.3908C198.782 44.4988 154.283 0 99.3908 0C44.4988 0 0 44.4988 0 99.3908C0 154.283 44.4988 198.781 99.3908 198.781Z" fill="white"/>
</mask>
<g mask="url(#mask0_81_946)">
<path d="M99.3908 198.781C154.283 198.781 198.782 154.282 198.782 99.3898C198.782 44.4978 154.283 -0.000976562 99.3908 -0.000976562C44.4988 -0.000976562 0 44.4978 0 99.3898C0 154.282 44.4988 198.781 99.3908 198.781Z" fill="#406AD0"/>
<path d="M108.953 -21.022C100.257 15.7752 92.5432 52.7847 85.8098 90.0062C83.8953 100.606 82.0608 111.219 80.3062 121.847C80.1063 123.049 80.8227 124.479 82.2463 124.396L122.524 122.05C125.101 121.899 125.116 117.872 122.524 118.022L82.2463 120.368L84.1894 122.917C90.351 85.6115 97.5006 48.4894 105.638 11.5507C107.956 1.03338 110.357 -9.46651 112.839 -19.949C113.435 -22.4702 109.555 -23.5463 108.959 -21.022H108.953Z" fill="#030C09"/>
<path d="M42.592 125.285C51.3886 143.884 69.2338 157.919 89.5325 161.637C111.147 165.597 133.86 158.507 149.002 142.506C156.974 134.101 162.611 123.759 165.353 112.504C165.968 109.986 162.076 108.913 161.47 111.434C156.898 130.466 143.099 147.001 124.829 154.267C105.585 161.913 83.4939 159.518 66.5312 147.607C57.7216 141.393 50.6729 133.002 46.0725 123.253C44.9657 120.913 41.4944 122.945 42.5982 125.285H42.592Z" fill="#030C09"/>
<path d="M157.226 111.11L171.016 114.772C171.531 114.914 172.081 114.845 172.546 114.581C173.01 114.318 173.351 113.88 173.493 113.365C173.634 112.85 173.566 112.3 173.302 111.836C173.038 111.371 172.601 111.03 172.086 110.889L158.296 107.227C157.781 107.085 157.231 107.153 156.766 107.417C156.302 107.681 155.961 108.118 155.819 108.633C155.678 109.148 155.746 109.698 156.01 110.163C156.274 110.627 156.711 110.968 157.226 111.11Z" fill="#030C09"/>
<path d="M56.0558 88.075C55.2198 88.0723 54.4095 87.7858 53.7576 87.2624C53.1057 86.739 52.6509 86.0097 52.4677 85.1941C52.2566 84.2414 52.4316 83.2439 52.9542 82.4199C53.4769 81.5959 54.3046 81.0125 55.2564 80.7973C55.5229 80.7377 55.795 80.7067 56.0681 80.7051C56.9018 80.7126 57.7086 81.001 58.358 81.5238C59.0074 82.0466 59.4616 82.7732 59.647 83.586C59.7666 84.1252 59.7637 84.6843 59.6385 85.2222C59.5132 85.7601 59.2688 86.2631 58.9232 86.6939C58.5777 87.1247 58.1398 87.4725 57.6419 87.7115C57.144 87.9506 56.5988 88.0748 56.0466 88.075H56.0558Z" fill="#030C09"/>
<path d="M129.096 88.0758C128.261 88.0701 127.452 87.783 126.801 87.2608C126.149 86.7385 125.693 86.0118 125.505 85.198C125.293 84.2444 125.468 83.2457 125.991 82.421C126.515 81.5962 127.344 81.0126 128.297 80.7982C128.561 80.7395 128.831 80.7096 129.102 80.709C130.081 80.709 131.019 81.0977 131.711 81.7896C132.403 82.4816 132.792 83.42 132.792 84.3986C132.792 85.3771 132.403 86.3155 131.711 87.0075C131.019 87.6994 130.081 88.0881 129.102 88.0881L129.096 88.0758Z" fill="#030C09"/>
</g>
</svg>
