<svg width="199" height="199" viewBox="0 0 199 199" fill="none" xmlns="http://www.w3.org/2000/svg">
<g opacity="0.83">
<mask id="mask0_81_915" style="mask-type:luminance" maskUnits="userSpaceOnUse" x="0" y="0" width="199" height="199">
<path d="M99.3908 198.781C154.283 198.781 198.782 154.283 198.782 99.3908C198.782 44.4988 154.283 0 99.3908 0C44.4988 0 0 44.4988 0 99.3908C0 154.283 44.4988 198.781 99.3908 198.781Z" fill="white"/>
</mask>
<g mask="url(#mask0_81_915)">
<path d="M99.3908 198.782C154.283 198.782 198.782 154.283 198.782 99.3908C198.782 44.4988 154.283 0 99.3908 0C44.4988 0 0 44.4988 0 99.3908C0 154.283 44.4988 198.782 99.3908 198.782Z" fill="white"/>
<path d="M54.0716 52.4215C53.2363 52.4164 52.4273 52.1294 51.7755 51.6071C51.1237 51.0848 50.6673 50.3577 50.4803 49.5437C50.2684 48.5905 50.4428 47.5923 50.9655 46.7676C51.4883 45.9429 52.3166 45.359 53.269 45.1438C53.5345 45.0852 53.8058 45.0553 54.0777 45.0547C54.9764 45.0688 55.8389 45.4105 56.5035 46.0156C57.1681 46.6207 57.589 47.4475 57.6871 48.3409C57.7853 49.2344 57.554 50.1329 57.0366 50.8678C56.5192 51.6027 55.7512 52.1235 54.877 52.3324C54.6127 52.3925 54.3426 52.4224 54.0716 52.4215Z" fill="#030C09"/>
<path d="M109.882 30.9483C109.046 30.9437 108.237 30.657 107.585 30.1346C106.933 29.6122 106.477 28.8848 106.291 28.0704C106.077 27.116 106.251 26.1157 106.774 25.2896C107.298 24.4634 108.128 23.8789 109.082 23.6645C110.035 23.4534 111.032 23.6284 111.856 24.151C112.68 24.6737 113.264 25.5014 113.479 26.4532C113.691 27.4067 113.516 28.4054 112.993 29.2302C112.469 30.055 111.64 30.6386 110.687 30.853C110.423 30.9154 110.153 30.9474 109.882 30.9483Z" fill="#030C09"/>
<path d="M39.7211 -6.52167C58.3257 2.06272 73.216 18.1646 80.3892 37.3749C83.7251 46.3098 86.6276 57.3109 83.6237 66.7193C82.9669 68.8819 81.8321 70.869 80.3031 72.5334C78.5936 74.3413 76.4076 75.4482 74.3107 76.7334C70.6027 79.0056 67.0946 82.5506 67.3928 87.2579C67.9186 95.5901 79.8481 98.4588 86.4216 96.2512C88.866 95.4303 87.8175 91.5409 85.3517 92.3679C81.1425 93.7823 70.0124 92.248 71.5436 85.696C72.6166 81.084 78.0832 79.5713 81.4007 76.9578C85.118 74.0308 87.3102 69.6433 88.1957 65.0559C90.0682 55.3708 87.5439 44.8955 84.0942 35.8469C80.5196 26.4781 75.308 17.8195 68.7025 10.2751C61.2384 1.70666 52.057 -5.19752 41.7533 -9.98986C39.4166 -11.0691 37.369 -7.59779 39.7211 -6.51244V-6.52167Z" fill="#030C09"/>
<path d="M156.152 61.9368C164.181 77.4944 166.473 95.3829 162.627 112.462C159.137 127.805 150.534 141.552 138.605 151.759C131.978 157.429 124.387 161.863 116.194 164.851C113.777 165.727 114.819 169.62 117.264 168.731C132.649 163.096 145.9 152.812 155.177 139.307C165.154 124.801 169.68 106.968 168.17 89.4487C167.298 79.1329 164.392 69.0919 159.62 59.9045C158.421 57.6078 154.944 59.6401 156.143 61.9368H156.152Z" fill="#030C09"/>
<path d="M151.879 63.0967L164.854 57.4794C165.853 57.0459 166.084 55.5823 165.576 54.7122C164.962 53.6822 163.824 53.5561 162.809 53.9897L149.834 59.607C148.838 60.0375 148.605 61.5041 149.112 62.3742C149.727 63.4042 150.864 63.5303 151.879 63.0967Z" fill="#030C09"/>
</g>
</g>
</svg>
