<svg width="199" height="200" viewBox="0 0 199 200" fill="none" xmlns="http://www.w3.org/2000/svg">
<mask id="mask0_81_897" style="mask-type:luminance" maskUnits="userSpaceOnUse" x="0" y="0" width="199" height="200">
<path d="M99.3908 199.496C154.283 199.496 198.782 154.998 198.782 100.106C198.782 45.2136 154.283 0.714844 99.3908 0.714844C44.4988 0.714844 0 45.2136 0 100.106C0 154.998 44.4988 199.496 99.3908 199.496Z" fill="white"/>
</mask>
<g mask="url(#mask0_81_897)">
<path d="M99.3908 199.496C154.283 199.496 198.782 154.998 198.782 100.106C198.782 45.2136 154.283 0.714844 99.3908 0.714844C44.4988 0.714844 0 45.2136 0 100.106C0 154.998 44.4988 199.496 99.3908 199.496Z" fill="#76B4FC"/>
<path d="M107.591 -6.25002C102.653 9.65816 101.885 26.6302 104.766 43.0026C107.629 59.3416 114.138 74.825 123.81 88.3013C129.269 95.9031 135.755 102.712 143.082 108.535V105.691C139.487 108.812 135.243 111.094 130.658 112.373C126.073 113.652 121.26 113.895 116.569 113.086C114.036 112.631 112.947 116.511 115.499 116.969C120.881 117.939 126.411 117.684 131.681 116.224C136.95 114.764 141.823 112.136 145.938 108.535C146.692 107.877 146.753 106.334 145.938 105.691C120.686 85.7462 106.398 53.6286 107.118 21.6124C107.315 12.5255 108.781 3.51076 111.472 -5.17082C112.243 -7.64898 108.357 -8.70973 107.591 -6.24079V-6.25002Z" fill="#030C09"/>
<path d="M48.8531 80.9511C43.8553 93.0724 42.9201 106.487 46.1874 119.184C48.5379 128.021 52.8709 136.205 58.8574 143.117C64.8439 150.028 72.3265 155.484 80.7371 159.072C81.7456 159.499 82.8893 159.379 83.5043 158.349C84.0054 157.51 83.781 156.018 82.7817 155.582C61.6159 146.632 47.7308 125.493 48.3273 102.455C48.528 95.4244 50.027 88.4914 52.7487 82.0057C53.1699 80.9942 52.2936 79.8012 51.3436 79.5276C50.1875 79.1986 49.2835 79.9365 48.8654 80.9358L48.8531 80.9511Z" fill="#030C09"/>
<path d="M72.3136 41.1852C71.4149 41.1711 70.5523 40.8294 69.8877 40.2243C69.2231 39.6192 68.8022 38.7924 68.7041 37.8989C68.6059 37.0055 68.8373 36.107 69.3547 35.3721C69.8721 34.6372 70.64 34.1164 71.5142 33.9075C71.7797 33.8489 72.0509 33.819 72.3228 33.8184C73.2215 33.8325 74.0841 34.1742 74.7487 34.7793C75.4133 35.3843 75.8342 36.2112 75.9323 37.1046C76.0305 37.998 75.7991 38.8965 75.2817 39.6315C74.7643 40.3664 73.9964 40.8872 73.1222 41.096C72.8567 41.1549 72.5856 41.1848 72.3136 41.1852Z" fill="#030C09"/>
<path d="M133.769 41.1871C132.934 41.1815 132.125 40.8943 131.473 40.3721C130.821 39.8498 130.365 39.1231 130.177 38.3093C129.966 37.3562 130.142 36.3583 130.665 35.5342C131.188 34.7101 132.017 34.127 132.969 33.9125C133.922 33.7015 134.919 33.8764 135.743 34.3991C136.567 34.9217 137.151 35.7495 137.366 36.7012C137.578 37.6548 137.403 38.6534 136.88 39.4782C136.356 40.303 135.527 40.8866 134.574 41.101C134.31 41.1588 134.039 41.1877 133.769 41.1871Z" fill="#030C09"/>
</g>
</svg>
