<svg width="200" height="199" viewBox="0 0 200 199" fill="none" xmlns="http://www.w3.org/2000/svg">
<mask id="mask0_81_906" style="mask-type:luminance" maskUnits="userSpaceOnUse" x="0" y="0" width="200" height="199">
<path d="M99.6994 198.891C154.591 198.891 199.09 154.392 199.09 99.5001C199.09 44.6081 154.591 0.109375 99.6994 0.109375C44.8074 0.109375 0.308594 44.6081 0.308594 99.5001C0.308594 154.392 44.8074 198.891 99.6994 198.891Z" fill="white"/>
</mask>
<g mask="url(#mask0_81_906)">
<path d="M99.6994 198.891C154.591 198.891 199.09 154.392 199.09 99.5001C199.09 44.6081 154.591 0.109375 99.6994 0.109375C44.8074 0.109375 0.308594 44.6081 0.308594 99.5001C0.308594 154.392 44.8074 198.891 99.6994 198.891Z" fill="#FE55A6"/>
<path d="M58.1847 117.778C57.333 130.501 58.7105 143.721 64.8598 155.095C70.0867 164.74 78.505 172.359 89.091 175.535C99.0921 178.462 109.792 177.896 119.428 173.93C129.267 169.841 136.517 162.179 140.668 152.426C145.468 141.145 146.433 128.468 145.649 116.345C145.486 113.774 141.458 113.756 141.624 116.345C142.839 135.162 139.739 158.538 121.47 168.521C113.168 173.054 103.047 174.428 93.7983 172.562C83.8948 170.563 75.6579 164.672 70.185 156.198C62.852 144.822 61.3239 131.017 62.191 117.765C62.3631 115.18 58.3385 115.189 58.1663 117.765L58.1847 117.778Z" fill="#030C09"/>
<path d="M91.3793 -5.29645C100.439 6.42588 105.906 20.5233 107.118 35.2888C108.21 49.6488 105.162 64.0208 98.3341 76.7011C94.5144 83.8099 89.5888 90.2662 83.7419 95.8284C82.7703 96.7508 83.087 98.3127 84.1508 98.9922L105.879 112.847C108.068 114.245 110.092 110.762 107.912 109.372L86.1985 95.5148C86.3358 96.5704 86.4722 97.624 86.6075 98.6755C108.809 77.5527 117.012 44.7125 107.152 15.6603C104.352 7.36899 100.203 -0.403513 94.872 -7.34416C94.2018 -8.21121 93.1472 -8.65396 92.1049 -8.0667C91.2532 -7.58091 90.7213 -6.17272 91.3824 -5.29953L91.3793 -5.29645Z" fill="#030C09"/>
<path d="M66.3313 58.0115C65.4962 58.0058 64.6875 57.7187 64.0359 57.1964C63.3842 56.6742 62.9277 55.9474 62.7402 55.1336C62.5283 54.1801 62.7033 53.1814 63.2266 52.3566C63.7499 51.5319 64.579 50.9483 65.532 50.7338C66.4847 50.5228 67.4821 50.6977 68.3061 51.2204C69.1301 51.743 69.7136 52.5708 69.9287 53.5225C70.1406 54.4761 69.9656 55.4747 69.4423 56.2995C68.919 57.1243 68.0899 57.7079 67.1369 57.9223C66.8724 57.9812 66.6023 58.0111 66.3313 58.0115Z" fill="#030C09"/>
<path d="M137.488 58.0115C136.653 58.0058 135.844 57.7187 135.192 57.1964C134.541 56.6742 134.084 55.9474 133.897 55.1336C133.685 54.1801 133.86 53.1814 134.383 52.3566C134.906 51.5319 135.735 50.9483 136.688 50.7338C137.641 50.5228 138.639 50.6977 139.463 51.2204C140.287 51.743 140.87 52.5708 141.085 53.5225C141.297 54.4761 141.122 55.4747 140.599 56.2995C140.075 57.1243 139.246 57.7079 138.293 57.9223C138.029 57.981 137.759 58.0109 137.488 58.0115Z" fill="#030C09"/>
</g>
</svg>
