<svg width="199" height="199" viewBox="0 0 199 199" fill="none" xmlns="http://www.w3.org/2000/svg">
<mask id="mask0_96_929" style="mask-type:luminance" maskUnits="userSpaceOnUse" x="0" y="0" width="199" height="199">
<path d="M99.3908 198.781C154.283 198.781 198.782 154.283 198.782 99.3908C198.782 44.4988 154.283 0 99.3908 0C44.4988 0 0 44.4988 0 99.3908C0 154.283 44.4988 198.781 99.3908 198.781Z" fill="white"/>
</mask>
<g mask="url(#mask0_96_929)">
<path d="M99.3908 198.781C154.283 198.781 198.782 154.282 198.782 99.3898C198.782 44.4978 154.283 -0.000976562 99.3908 -0.000976562C44.4988 -0.000976562 0 44.4978 0 99.3898C0 154.282 44.4988 198.781 99.3908 198.781Z" fill="#DCB2FF"/>
<path d="M108.953 -21.022C100.257 15.7752 92.5432 52.7847 85.8098 90.0062C83.8953 100.606 82.0608 111.219 80.3062 121.847C80.1063 123.049 80.8227 124.479 82.2463 124.396L122.524 122.05C125.101 121.899 125.116 117.872 122.524 118.022L82.2463 120.368L84.1894 122.917C90.351 85.6115 97.5006 48.4894 105.638 11.5507C107.956 1.03338 110.357 -9.46651 112.839 -19.949C113.435 -22.4702 109.555 -23.5463 108.959 -21.022H108.953Z" fill="#DCB2FF"/>
<path d="M42.592 125.285C51.3886 143.884 69.2338 157.919 89.5325 161.637C111.147 165.597 133.86 158.507 149.002 142.506C156.974 134.101 162.611 123.759 165.353 112.504C165.968 109.986 162.076 108.913 161.47 111.434C156.898 130.466 143.099 147.001 124.829 154.267C105.585 161.913 83.4939 159.518 66.5312 147.607C57.7216 141.393 50.6729 133.002 46.0725 123.253C44.9657 120.913 41.4944 122.945 42.5982 125.285H42.592Z" fill="#DCB2FF"/>
<path d="M157.226 111.11L171.016 114.772C171.531 114.914 172.081 114.845 172.546 114.581C173.01 114.318 173.351 113.88 173.493 113.365C173.634 112.85 173.566 112.3 173.302 111.836C173.038 111.371 172.601 111.03 172.086 110.889L158.296 107.227C157.781 107.085 157.231 107.153 156.766 107.417C156.302 107.681 155.961 108.118 155.819 108.633C155.678 109.148 155.746 109.698 156.01 110.163C156.274 110.627 156.711 110.968 157.226 111.11Z" fill="#DCB2FF"/>
<path d="M56.0558 88.075C55.2198 88.0723 54.4095 87.7858 53.7576 87.2624C53.1057 86.739 52.6509 86.0097 52.4677 85.1941C52.2567 84.2414 52.4316 83.2439 52.9542 82.4199C53.4769 81.5959 54.3047 81.0125 55.2564 80.7973C55.5229 80.7377 55.795 80.7067 56.0681 80.7051C56.9018 80.7126 57.7086 81.001 58.358 81.5238C59.0075 82.0466 59.4616 82.7732 59.647 83.586C59.7667 84.1252 59.7637 84.6843 59.6385 85.2222C59.5132 85.7601 59.2688 86.2631 58.9232 86.6939C58.5777 87.1247 58.1398 87.4725 57.642 87.7115C57.1441 87.9506 56.5989 88.0748 56.0466 88.075H56.0558Z" fill="#DCB2FF"/>
<path d="M129.096 88.0758C128.261 88.0701 127.452 87.783 126.801 87.2608C126.149 86.7385 125.693 86.0118 125.505 85.198C125.293 84.2444 125.468 83.2457 125.991 82.421C126.515 81.5962 127.344 81.0126 128.297 80.7982C128.561 80.7395 128.831 80.7096 129.102 80.709C130.081 80.709 131.019 81.0977 131.711 81.7896C132.403 82.4816 132.792 83.42 132.792 84.3986C132.792 85.3771 132.403 86.3155 131.711 87.0075C131.019 87.6994 130.081 88.0881 129.102 88.0881L129.096 88.0758Z" fill="#DCB2FF"/>
<path d="M75.8536 52.6715C75.1539 53.1481 74.3139 53.3747 73.4694 53.3148C72.6249 53.2548 71.8253 52.9118 71.1999 52.3412C70.4731 51.6685 70.0426 50.735 70.003 49.7455C69.9634 48.7559 70.3179 47.7911 70.9886 47.0625C71.6611 46.3375 72.5932 45.9083 73.5813 45.8687C74.5693 45.8292 75.5328 46.1824 76.2611 46.8512C76.9883 47.5235 77.4193 48.4567 77.4595 49.4463C77.4997 50.4358 77.1458 51.4009 76.4755 52.1299C76.2878 52.3317 76.0793 52.5133 75.8536 52.6715Z" fill="#030C09"/>
<path d="M119.917 39.5145C119.219 39.9941 118.379 40.2225 117.534 40.1625C116.689 40.1025 115.89 39.7576 115.266 39.1841C114.54 38.5116 114.111 37.5788 114.071 36.59C114.031 35.6012 114.385 34.637 115.055 33.9086C115.24 33.7052 115.448 33.5235 115.674 33.367C116.431 32.8603 117.347 32.6474 118.251 32.7684C119.154 32.8894 119.982 33.3359 120.579 34.0241C121.176 34.7123 121.502 35.5949 121.494 36.5061C121.487 37.4173 121.147 38.2945 120.539 38.9729C120.352 39.1762 120.144 39.3579 119.917 39.5145Z" fill="#030C09"/>
<path d="M78.2592 4.50689L104.243 49.6945L127.413 89.9923C128.933 92.6522 130.463 95.312 132.002 97.9718L134.11 95.0681L88.4246 88.3976L81.9468 87.4524C79.2812 87.0618 78.5178 90.7386 81.1899 91.1291L126.875 97.7996L133.353 98.7448C135.319 99.033 136.252 97.2212 135.457 95.8411L122.267 72.8994L95.4944 26.3288L81.7143 2.36769C81.1964 1.46181 79.6465 1.38401 78.7945 1.89659C77.7512 2.525 77.7447 3.6181 78.2591 4.49833L78.2592 4.50689Z" fill="#030C09"/>
<path d="M21.3317 127.515C28.9625 151.435 47.941 171.185 71.1554 180.546C95.058 190.182 122.026 187.481 144.218 174.694C156.719 167.527 167.178 157.281 174.6 144.931C175.946 142.681 172.24 140.964 170.901 143.205C158.489 163.996 136.032 178.269 112.14 181.613C88.0457 184.984 63.953 176.423 46.4136 159.759C36.6852 150.52 29.2651 138.958 25.1852 126.166C24.3872 123.657 20.5337 125.016 21.3317 127.515Z" fill="#030C09"/>
<path d="M159.781 89.3684C161.95 87.872 159.624 84.5132 157.461 86.0128C155.298 87.5123 157.619 90.8649 159.781 89.3684Z" fill="#030C09" stroke="#030C09" stroke-width="1.28469" stroke-miterlimit="10"/>
<path d="M178.223 88.8642C180.392 87.3708 178.062 84.0121 175.9 85.5085C173.737 87.0049 176.061 90.3637 178.223 88.8642Z" fill="#030C09" stroke="#030C09" stroke-width="1.28469" stroke-miterlimit="10"/>
<path d="M168.784 72.7313C170.953 71.238 168.623 67.8793 166.46 69.3757C164.298 70.8721 166.621 74.2278 168.784 72.7313Z" fill="#030C09" stroke="#030C09" stroke-width="1.28469" stroke-miterlimit="10"/>
<path d="M22.1861 92.961C24.3551 91.4645 22.0253 88.1058 19.8626 89.6022C17.6999 91.0987 20.0234 94.4574 22.1861 92.961Z" fill="#030C09" stroke="#030C09" stroke-width="1.28469" stroke-miterlimit="10"/>
<path d="M40.4524 94.0977C42.6214 92.6012 40.2916 89.2425 38.1288 90.739C35.9661 92.2354 38.2897 95.5941 40.4524 94.0977Z" fill="#030C09" stroke="#030C09" stroke-width="1.28469" stroke-miterlimit="10"/>
<path d="M31.7448 76.3173C33.9138 74.8239 31.5871 71.4652 29.4244 72.9616C27.2616 74.4581 29.5821 77.8168 31.7448 76.3173Z" fill="#030C09" stroke="#030C09" stroke-width="1.28469" stroke-miterlimit="10"/>
</g>
</svg>
